<svg xmlns="http://www.w3.org/2000/svg" xmlns:xlink="http://www.w3.org/1999/xlink" version="1.1" width="1000" height="1000" viewBox="0 0 1000 1000" xml:space="preserve">
<desc>Created with Fabric.js 3.5.0</desc>
<defs>
</defs>
<rect x="0" y="0" width="100%" height="100%" fill="rgba(49,48,48,0)"/>
<g transform="matrix(1 0 0 1 448.1914 519.8683)" style="filter: url(#SVGID_5);" id="946576">
<filter id="SVGID_5" y="-23.37%" height="146.74%" x="-20.42%" width="140.84%">
	<feGaussianBlur in="SourceAlpha" stdDeviation="0"/>
	<feOffset dx="5" dy="13" result="oBlur"/>
	<feFlood flood-color="rgb(72,152,156)" flood-opacity="1"/>
	<feComposite in2="oBlur" operator="in"/>
	<feMerge>
		<feMergeNode/>
		<feMergeNode in="SourceGraphic"/>
	</feMerge>
</filter>
		
<path xml:space="preserve" font-family="Modak" font-size="341" font-style="italic" style="stroke: rgb(225,227,233); stroke-width: 5; stroke-dasharray: none; stroke-linecap: butt; stroke-dashoffset: 0; stroke-linejoin: miter; stroke-miterlimit: 4; is-custom-font: none; font-file-url: none; fill: rgb(255,51,51); fill-rule: nonzero; opacity: 1; white-space: pre;" d="M-229.51-80.03L-229.51 31.03Q-229.51 66.16-251.82 88.14L-251.82 88.14Q-275.46 111.78-317.09 111.78L-317.09 111.78Q-340.90 111.78-362.21 99.46L-362.21 99.46Q-378.53 90.14-387.02 77.98L-387.02 77.98Q-388.69 67.83-388.69 59.50L-388.69 59.50Q-388.69 32.36-372.20 17.88L-372.20 17.88Q-358.88 6.22-339.40 6.22L-339.40 6.22Q-324.58 6.22-312.43 14.05L-312.43 14.05Q-300.11 22.37-294.28 37.02L-294.28 37.02Q-288.95 37.02-288.95 31.53L-288.95 31.53Q-288.95 28.70-291.36 24.04Q-293.78 19.37-298.27 14.71L-298.27 14.71Q-310.10 2.56-326.75-0.27L-326.75-0.27L-326.75-96.18Q-318.42-102.34-305.77-106.50Q-293.11-110.67-276.96-110.67Q-260.81-110.67-247.82-105.00L-247.82-105.00Q-229.51-96.68-229.51-80.03L-229.51-80.03Z"/><path xml:space="preserve" font-family="Modak" font-size="341" font-style="italic" style="stroke: rgb(225,227,233); stroke-width: 5; stroke-dasharray: none; stroke-linecap: butt; stroke-dashoffset: 0; stroke-linejoin: miter; stroke-miterlimit: 4; is-custom-font: none; font-file-url: none; fill: rgb(255,51,51); fill-rule: nonzero; opacity: 1; white-space: pre;" d="M-97.59 112.28L-97.59 112.28Q-143.71 112.28-170.36 86.64L-170.36 86.64Q-197.66 60.83-197.66 15.96Q-197.66-28.91-169.52-55.22L-169.52-55.22Q-143.55-79.70-103.75-79.70Q-63.96-79.70-39.90-57.80Q-15.84-35.91-15.84-3.94L-15.84-3.94Q-15.84 24.54-35.65 39.02L-35.65 39.02Q-53.97 52.67-85.60 52.67L-85.60 52.67Q-109.25 52.67-125.57 42.85L-125.57 42.85Q-126.90 43.85-126.90 46.51L-126.90 46.51Q-126.90 51.51-113.74 55.67L-113.74 55.67Q-100.59 60.17-83.86 60.17Q-67.12 60.17-53.39 55.92Q-39.65 51.68-31.32 45.85L-31.32 45.85Q-27.33 49.34-24.91 58.75Q-22.50 68.16-22.50 75.90Q-22.50 83.64-24.00 89.64L-24.00 89.64Q-36.99 100.63-50.64 105.29L-50.64 105.29Q-69.95 112.28-97.59 112.28ZM-99.76-0.44L-99.76-0.44Q-91.43-0.44-91.43-6.77L-91.43-6.77Q-91.43-12.76-100.26-12.76Q-109.08-12.76-110.41-3.27L-110.41-3.27Q-105.75-0.44-99.76-0.44Z"/><path xml:space="preserve" font-family="Modak" font-size="341" font-style="italic" style="stroke: rgb(225,227,233); stroke-width: 5; stroke-dasharray: none; stroke-linecap: butt; stroke-dashoffset: 0; stroke-linejoin: miter; stroke-miterlimit: 4; is-custom-font: none; font-file-url: none; fill: rgb(255,51,51); fill-rule: nonzero; opacity: 1; white-space: pre;" d="M31.99 50.01L31.99 1.89L42.31 1.89Q50.64 1.89 50.64-3.60L50.64-3.60Q50.64-4.27 50.31-5.60L50.31-5.60L13.01-5.60Q9.35-17.26 9.35-31.66Q9.35-46.06 11.51-55.05L11.51-55.05Q21.00-61.05 37.65-73.37L37.65-73.37Q42.31-84.69 49.81-109.33L49.81-109.33Q50.81-112.66 52.14-115.83L52.14-115.83Q65.13-119.16 81.78-119.16Q98.43-119.16 114.58-115.66L114.58-115.66L114.58-74.87L143.38-74.87Q153.04-60.21 153.04-40.40L153.04-40.40Q153.04-31.41 150.54-21.92Q148.04-12.43 143.38-5.77L143.38-5.77L119.57-5.77L119.57 19.37Q119.57 40.69 137.39 40.69L137.39 40.69L144.55 40.69Q148.04 53.34 148.04 62.67L148.04 62.67Q148.04 85.64 133.64 97.88Q119.24 110.12 91.85 110.12Q64.46 110.12 48.22 94.88Q31.99 79.65 31.99 50.01L31.99 50.01Z"/><path xml:space="preserve" font-family="Modak" font-size="341" font-style="italic" style="stroke: rgb(225,227,233); stroke-width: 5; stroke-dasharray: none; stroke-linecap: butt; stroke-dashoffset: 0; stroke-linejoin: miter; stroke-miterlimit: 4; is-custom-font: none; font-file-url: none; fill: rgb(255,51,51); fill-rule: nonzero; opacity: 1; white-space: pre;" d="M286.79 67.99L286.79 67.99L267.47 105.62Q254.98 110.29 240.33 110.29L240.33 110.29Q214.52 110.29 198.04 95.63Q181.56 80.98 181.56 56.17L181.56 56.17Q181.56 34.19 196.37 17.04Q211.19-0.11 238.33-11.76L238.33-11.76Q236.33-17.26 231.51-17.26Q226.68-17.26 213.86-8.43L213.86-8.43Q201.37-14.93 191.96-29.91Q182.55-44.90 182.55-64.54Q182.55-84.19 197.04-98.18Q211.53-112.16 237.00-112.16L237.00-112.16Q258.98-112.16 273.13-104.01L273.13-104.01L290.78-68.87L305.10-104.84Q319.25-111.16 336.74-111.16L336.74-111.16Q361.55-111.16 377.03-97.51L377.03-97.51Q392.52-83.53 392.52-58.38L392.52-58.38Q392.52-37.57 377.61-19.34Q362.71-1.11 339.40 9.55L339.40 9.55Q341.23 14.38 345.98 14.38Q350.72 14.38 361.38 7.05L361.38 7.05L395.68 50.01Q395.68 76.82 382.36 92.80L382.36 92.80Q367.71 110.45 341.90 110.45L341.90 110.45Q302.60 110.45 286.79 67.99Z"/></g>
</svg>